#!OML:ASF C:\ViconDB\ViconDB\414\Spring2016\041811\Spring2016.ASF
:FULLY-SPECIFIED
:DEGREES
211
root 10.9939 17.7609 -2.03647 -183.124 -16.2905 -172.881
lowerback 0.166735 -0.905941 2.98134
upperback 0.804151 -1.32639 2.61719
thorax 0.727609 -0.693239 1.00509
lowerneck -10.9946 3.74746 -4.53369
upperneck 27.4201 1.27773 11.912
head 10.379 0.808284 5.11052
rclavicle -1.50543e-014 6.63444e-015
rhumerus -88.1574 33.2327 -115.03
rradius 93.4326
rwrist 33.436
rhand -41.8829 -0.486787
rfingers 7.12502
rthumb -14.7823 -29.9396
lclavicle -1.50543e-014 6.63444e-015
lhumerus -89.5046 -44.4283 121.939
lradius 79.2767
lwrist -30.1698
lhand -47.0155 2.70033
lfingers 7.12502
lthumb -19.7222 31.7198
rfemur 172.243 60.0264 -145.271
rtibia 35.1988
rfoot -52.1131 -55.7852
rtoes 4.25649
lfemur -19.7748 2.80242 -5.60643
ltibia 68.9255
lfoot -6.19751 -0.467454
ltoes -13.7746
212
root 11.0243 17.7703 -2.14112 -183.053 -16.3146 -172.699
lowerback 0.296478 -0.820038 2.81217
upperback 0.852889 -1.20544 2.60723
thorax 0.708309 -0.63319 1.09161
lowerneck -11.1451 3.64359 -4.50421
upperneck 27.3036 1.00817 12.3431
head 10.3905 0.737674 5.23435
rclavicle 4.00753e-015 -1.16289e-014
rhumerus -88.3992 33.6377 -115.517
rradius 93.1585
rwrist 33.6867
rhand -42.3582 -1.54721
rfingers 7.12502
rthumb -15.2402 -30.9658
lclavicle 4.00753e-015 -1.16289e-014
lhumerus -89.1282 -44.4824 121.891
lradius 79.1812
lwrist -30.0669
lhand -46.9665 2.1939
lfingers 7.12502
lthumb -19.6751 31.2182
rfemur 172.142 61.2786 -144.778
rtibia 35.3102
rfoot -53.715 -55.4148
rtoes 4.25272
lfemur -21.6546 2.3582 -5.56225
ltibia 69.0168
lfoot -7.41177 -0.0402288
ltoes -14.0924
213
root 11.0533 17.7715 -2.24577 -182.969 -16.2594 -172.662
lowerback 0.493721 -0.757591 2.39309
upperback 0.876272 -1.11164 2.63099
thorax 0.629638 -0.588619 1.35351
lowerneck -11.2949 3.54534 -4.39479
upperneck 27.3138 0.773673 12.5342
head 10.4503 0.661857 5.26524
rclavicle 4.39687e-014 -2.95195e-014
rhumerus -88.5295 34.0827 -115.757
rradius 92.8613
rwrist 33.2878
rhand -42.243 -0.84096
rfingers 7.12502
rthumb -15.1293 -30.268
lclavicle 4.39687e-014 -2.95195e-014
lhumerus -88.8059 -44.3377 121.852
lradius 79.2221
lwrist -30.1279
lhand -46.8424 2.3118
lfingers 7.12502
lthumb -19.5558 31.3483
rfemur 172.09 63.0278 -144.309
rtibia 35.4477
rfoot -55.9104 -55.7127
rtoes 5.77216
lfemur -23.4286 1.91052 -5.67141
ltibia 68.8659
lfoot -8.39005 0.0953486
ltoes -14.6309
214
root 11.0821 17.7702 -2.34644 -182.883 -16.3451 -172.381
lowerback 0.596243 -0.718928 2.34208
upperback 0.905202 -1.05642 2.62309
thorax 0.602162 -0.56126 1.37528
lowerneck -11.3027 3.43925 -4.48676
upperneck 27.099 0.488245 13.1057
head 10.3978 0.578336 5.45116
rclavicle -1.28371e-014 -1.55052e-014
rhumerus -88.846 34.5065 -116.313
rradius 92.614
rwrist 33.3394
rhand -42.633 -1.80313
rfingers 7.12502
rthumb -15.5049 -31.2014
lclavicle -1.28371e-014 -1.55052e-014
lhumerus -88.5088 -44.2788 121.714
lradius 79.317
lwrist -30.2876
lhand -46.7023 2.23937
lfingers 7.12502
lthumb -19.4211 31.2895
rfemur 172.41 65.1635 -143.248
rtibia 35.5994
rfoot -58.465 -55.9139
rtoes 7.34949
lfemur -25.2843 1.19202 -5.57151
ltibia 68.4569
lfoot -9.28204 0.198342
ltoes -14.9448
